<?xml version="1.0" encoding="UTF-8"?>
<!--Generator: Apple Native CoreSVG 232.5-->
<!DOCTYPE svg
PUBLIC "-//W3C//DTD SVG 1.1//EN"
       "http://www.w3.org/Graphics/SVG/1.1/DTD/svg11.dtd">
<svg version="1.1" xmlns="http://www.w3.org/2000/svg" xmlns:xlink="http://www.w3.org/1999/xlink" width="514.135" height="399.594">
 <g>
  <rect height="399.594" opacity="0" width="514.135" x="0" y="0"/>
  <path d="M0.499886 313.103C1.23231 320.573 5.48035 323.943 13.0975 323.796C57.7753 323.064 95.1288 302.116 127.941 263.298C162.951 298.601 203.381 319.548 246.154 328.923L239.562 382.097C238.098 394.694 244.982 401.579 259.484 399.089C305.187 392.058 355.432 359.831 382.678 321.892C450.939 301.384 514.074 259.05 514.074 207.487C514.074 158.855 457.531 118.278 393.517 96.3058C369.201 17.9367 264.904-17.952 191.076 23.0636C183.752 26.8722 183.019 33.171 188.879 40.9347C205.871 63.4933 211.877 76.9699 215.246 95.1339C183.898 106.706 154.455 125.163 127.941 151.823C95.1288 113.005 57.7753 92.0578 13.0975 91.3253C5.48035 91.1789 1.23231 94.6945 0.499886 102.019C-3.30871 141.13 15.0018 183.025 43.2733 207.487C15.0018 231.95-3.30871 273.991 0.499886 313.103ZM416.516 218.181C406.555 218.181 398.058 209.685 398.058 199.724C398.058 189.616 406.555 181.267 416.516 181.267C426.623 181.267 434.973 189.616 434.973 199.724C434.973 209.685 426.623 218.181 416.516 218.181Z" fill="#ffffff" fill-opacity="0.85"/>
 </g>
</svg>
